<mxfile host="Electron" agent="Mozilla/5.0 (X11; Linux x86_64) AppleWebKit/537.36 (KHTML, like Gecko) draw.io/24.7.5 Chrome/126.0.6478.183 Electron/31.3.0 Safari/537.36" version="24.7.5">
  <diagram name="Page-1" id="JX7w43hvcavrzpPKi0fR">
    <mxGraphModel dx="1192" dy="714" grid="1" gridSize="10" guides="1" tooltips="1" connect="1" arrows="1" fold="1" page="1" pageScale="1" pageWidth="850" pageHeight="1100" math="0" shadow="0">
      <root>
        <mxCell id="0" />
        <mxCell id="1" parent="0" />
        <mxCell id="6ysPsrx1hDV7moWbxD5H-7" style="rounded=0;orthogonalLoop=1;jettySize=auto;html=1;exitX=0.75;exitY=1;exitDx=0;exitDy=0;entryX=0;entryY=0.25;entryDx=0;entryDy=0;" edge="1" parent="1" source="6ysPsrx1hDV7moWbxD5H-1" target="6ysPsrx1hDV7moWbxD5H-4">
          <mxGeometry relative="1" as="geometry" />
        </mxCell>
        <mxCell id="6ysPsrx1hDV7moWbxD5H-1" value="&lt;font face=&quot;newcomputermodern&quot;&gt;Build the&lt;br&gt;&lt;i&gt;builder container&amp;nbsp;&lt;/i&gt;&lt;/font&gt;" style="rounded=0;whiteSpace=wrap;html=1;" vertex="1" parent="1">
          <mxGeometry x="80" y="10" width="130" height="50" as="geometry" />
        </mxCell>
        <mxCell id="6ysPsrx1hDV7moWbxD5H-8" style="rounded=0;orthogonalLoop=1;jettySize=auto;html=1;exitX=0.75;exitY=0;exitDx=0;exitDy=0;entryX=0;entryY=0.75;entryDx=0;entryDy=0;" edge="1" parent="1" source="6ysPsrx1hDV7moWbxD5H-3" target="6ysPsrx1hDV7moWbxD5H-4">
          <mxGeometry relative="1" as="geometry" />
        </mxCell>
        <mxCell id="6ysPsrx1hDV7moWbxD5H-3" value="&lt;font face=&quot;newcomputermodern&quot;&gt;Build the&lt;br&gt;&lt;i&gt;code-provider container&lt;/i&gt;&lt;/font&gt;" style="rounded=0;whiteSpace=wrap;html=1;" vertex="1" parent="1">
          <mxGeometry x="80" y="140" width="130" height="50" as="geometry" />
        </mxCell>
        <mxCell id="6ysPsrx1hDV7moWbxD5H-9" style="edgeStyle=orthogonalEdgeStyle;rounded=0;orthogonalLoop=1;jettySize=auto;html=1;entryX=0;entryY=0.5;entryDx=0;entryDy=0;" edge="1" parent="1" source="6ysPsrx1hDV7moWbxD5H-4" target="6ysPsrx1hDV7moWbxD5H-5">
          <mxGeometry relative="1" as="geometry" />
        </mxCell>
        <mxCell id="6ysPsrx1hDV7moWbxD5H-4" value="&lt;font face=&quot;newcomputermodern&quot;&gt;Compile the code using the builder&lt;/font&gt;" style="rounded=0;whiteSpace=wrap;html=1;" vertex="1" parent="1">
          <mxGeometry x="220" y="80" width="130" height="50" as="geometry" />
        </mxCell>
        <mxCell id="6ysPsrx1hDV7moWbxD5H-11" style="edgeStyle=orthogonalEdgeStyle;rounded=0;orthogonalLoop=1;jettySize=auto;html=1;entryX=0;entryY=0.5;entryDx=0;entryDy=0;" edge="1" parent="1" source="6ysPsrx1hDV7moWbxD5H-5" target="6ysPsrx1hDV7moWbxD5H-10">
          <mxGeometry relative="1" as="geometry" />
        </mxCell>
        <mxCell id="6ysPsrx1hDV7moWbxD5H-5" value="&lt;font face=&quot;newcomputermodern&quot;&gt;Copy the binaries in&lt;br&gt;the &lt;i&gt;final image&lt;/i&gt;&lt;/font&gt;" style="rounded=0;whiteSpace=wrap;html=1;" vertex="1" parent="1">
          <mxGeometry x="380" y="80" width="130" height="50" as="geometry" />
        </mxCell>
        <mxCell id="6ysPsrx1hDV7moWbxD5H-10" value="&lt;font face=&quot;newcomputermodern&quot;&gt;Run on the cluster&lt;br&gt;using the operator&lt;/font&gt;" style="rounded=0;whiteSpace=wrap;html=1;" vertex="1" parent="1">
          <mxGeometry x="540" y="80" width="130" height="50" as="geometry" />
        </mxCell>
      </root>
    </mxGraphModel>
  </diagram>
</mxfile>
